<svg xmlns="http://www.w3.org/2000/svg" viewBox="0 0 268.45 251.03"><defs><style>.cls-1{fill:#231f20;}</style></defs><g id="Layer_2" data-name="Layer 2"><g id="Layer_1-2" data-name="Layer 1"><path class="cls-1" d="M157.6,174a24.75,24.75,0,0,1-24.72-24.72c0-56.1,0-124.52,0-124.52V23.55a22.19,22.19,0,0,0-22.13-21V0a24.75,24.75,0,0,1,24.72,24.72l0,1.28c0,9.63,0,71.64,0,123.24A22.18,22.18,0,0,0,157.6,171.4Z"/><rect class="cls-1" x="88.2" y="64.32" width="2.56" height="108.48"/><rect class="cls-1" x="177.55" y="1.28" width="2.56" height="108.48"/><path class="cls-1" d="M155.1,115.66V152.9s1,19.78,16.84,19.78a8.78,8.78,0,0,0,8.54-8.59V115.66Z"/><path class="cls-1" d="M113.35,58.31V21.07s-1-19.79-16.84-19.79A8.77,8.77,0,0,0,88,9.88V58.31Z"/><path class="cls-1" d="M0,211.2H19.09v2.93H3.28v14.64h15.4v2.93H3.28v18.57H0Z"/><path class="cls-1" d="M27.22,211.2H30.5v39.07H27.22Z"/><path class="cls-1" d="M42.53,217.76v32.51H39.25V211.2h3.28l17.28,31.92V211.2h3.28v39.07H59.93Z"/><path class="cls-1" d="M89.73,210.56a18.53,18.53,0,0,1,14.7,6.67l-2.51,1.82a16,16,0,0,0-12.19-5.45c-9.19,0-16.28,7-16.28,17.16S80.54,248,89.73,248a16.58,16.58,0,0,0,11.48-4.75v-9.31H86.4v-3.05h18.15v13.65A19.79,19.79,0,0,1,89.73,251c-11,0-19.79-8.2-19.79-20.27S78.72,210.56,89.73,210.56Z"/><path class="cls-1" d="M112.68,211.2h19.1v2.93H116v14.64h15.41v2.93H116v15.64h15.82v2.93h-19.1Z"/><path class="cls-1" d="M149.06,234h-6.21v16.28h-3.28V211.2H150.4c5.86,0,10.19,4.22,10.19,11.36s-4,10.49-8.2,11L161,250.27h-3.75Zm1.05-19.86h-7.26v16.93h7.26c4.45,0,7.09-3.52,7.09-8.44S154.56,214.13,150.11,214.13Z"/><path class="cls-1" d="M178.59,243.59a11.33,11.33,0,0,0,9,4.4c5.51,0,7.91-3.52,7.91-7.27,0-5.09-4-7.2-8.2-9.31-4.63-2.29-9.54-4.63-9.54-11.07,0-5.92,4.68-9.78,10.48-9.78a12.67,12.67,0,0,1,9.78,4l-1.81,2.46a10.08,10.08,0,0,0-8-3.52c-3.92,0-7.09,2.64-7.09,6.68,0,4.22,3.75,6.09,7.74,8.14,4.8,2.4,10,5.1,10,12.19,0,5.33-3.4,10.42-11.25,10.42a13.92,13.92,0,0,1-11-4.86Z"/><path class="cls-1" d="M204.82,211.2h3.28V238c0,6.68,3.1,10,8.49,10s8.44-3.33,8.44-10V211.2h3.28V238c0,8.43-4.28,13-11.72,13S204.82,246.4,204.82,238Z"/><path class="cls-1" d="M237.06,211.2h3.28v39.07h-3.28Z"/><path class="cls-1" d="M255.63,214.13h-9.55V211.2h22.37v2.93h-9.54v36.14h-3.28Z"/></g></g></svg>