<svg xmlns="http://www.w3.org/2000/svg" viewBox="0 0 424.6 64.02"><defs><style>.cls-1{fill:#fff;}</style></defs><g id="Layer_2" data-name="Layer 2"><g id="Layer_1-2" data-name="Layer 1"><path class="cls-1" d="M0,1H30.2V5.65h-25V28.81H29.55v4.63H5.19V62.81H0Z"/><path class="cls-1" d="M43.06,1h5.18V62.81H43.06Z"/><path class="cls-1" d="M67.27,11.39V62.81H62.08V1h5.19L94.6,51.51V1h5.19V62.81h-5Z"/><path class="cls-1" d="M141.93,0a29.36,29.36,0,0,1,23.25,10.56l-4,2.87a25.19,25.19,0,0,0-19.27-8.61c-14.55,0-25.76,11-25.76,27.14,0,15.94,11.21,27.24,25.76,27.24a26.26,26.26,0,0,0,18.15-7.51V37H136.65V32.15h28.71V53.73A31.32,31.32,0,0,1,141.93,64c-17.42,0-31.32-13-31.32-32.06S124.51,0,141.93,0Z"/><path class="cls-1" d="M178.22,1h30.21V5.65h-25V28.81h24.36v4.63H183.41V58.18h25v4.63H178.22Z"/><path class="cls-1" d="M235.75,37.06h-9.82V62.81h-5.18V1h17.13C247.15,1,254,7.69,254,19s-6.4,16.59-13,17.42l13.62,26.4h-5.93Zm1.67-31.41H225.93V32.43h11.49c7,0,11.21-5.56,11.21-13.35S244.46,5.65,237.42,5.65Z"/><path class="cls-1" d="M282.47,52.25a17.91,17.91,0,0,0,14.18,7c8.71,0,12.5-5.56,12.5-11.49,0-8.06-6.39-11.39-13-14.73-7.33-3.61-15.11-7.32-15.11-17.51C281.08,6.11,288.49,0,297.67,0c6.58,0,11.76,2.32,15.47,6.39l-2.87,3.89a15.94,15.94,0,0,0-12.7-5.56c-6.2,0-11.21,4.17-11.21,10.57,0,6.67,5.93,9.63,12.23,12.87,7.6,3.8,15.84,8.06,15.84,19.27,0,8.43-5.37,16.49-17.78,16.49a22,22,0,0,1-17.33-7.69Z"/><path class="cls-1" d="M324,1h5.18V43.45c0,10.56,4.91,15.84,13.44,15.84S355.92,54,355.92,43.45V1h5.19V43.36c0,13.34-6.77,20.56-18.53,20.56S324,56.7,324,43.45Z"/><path class="cls-1" d="M375,1h5.18V62.81H375Z"/><path class="cls-1" d="M404.31,5.65h-15.1V1H424.6V5.65H409.5V62.81h-5.19Z"/></g></g></svg>